<svg width="42" height="42" viewBox="0 0 42 42" fill="none" xmlns="http://www.w3.org/2000/svg">
<rect width="42" height="42" fill="#FBEADD"/>
<path d="M21.0006 5.72726C16.853 5.72726 16.3324 5.7454 14.7034 5.81954C13.0775 5.89399 11.9677 6.1514 10.9967 6.52908C9.99221 6.91917 9.14014 7.44099 8.29126 8.29022C7.44174 9.13913 6.91994 9.99122 6.52859 10.9954C6.14996 11.9668 5.89224 13.0769 5.81906 14.7022C5.7462 16.3313 5.72711 16.8522 5.72711 21C5.72711 25.1478 5.74557 25.6668 5.81938 27.2959C5.89415 28.9218 6.15155 30.0316 6.52891 31.0027C6.9193 32.0072 7.44111 32.8593 8.29031 33.7082C9.13887 34.5577 9.99094 35.0808 10.9948 35.4709C11.9665 35.8486 13.0766 36.106 14.7021 36.1804C16.3312 36.2546 16.8514 36.2727 20.9987 36.2727C25.1468 36.2727 25.6657 36.2546 27.2947 36.1804C28.9206 36.106 30.0316 35.8486 31.0033 35.4709C32.0075 35.0808 32.8583 34.5577 33.7069 33.7082C34.5564 32.8593 35.0782 32.0072 35.4695 31.003C35.845 30.0316 36.1027 28.9214 36.1791 27.2962C36.2522 25.6671 36.2713 25.1478 36.2713 21C36.2713 16.8522 36.2522 16.3316 36.1791 14.7025C36.1027 13.0766 35.845 11.9668 35.4695 10.9957C35.0782 9.99122 34.5564 9.13913 33.7069 8.29022C32.8573 7.44067 32.0078 6.91886 31.0024 6.52908C30.0288 6.1514 28.9184 5.89399 27.2925 5.81954C25.6635 5.7454 25.1448 5.72726 20.9959 5.72726H21.0006ZM19.6306 8.47954C20.0372 8.4789 20.4909 8.47954 21.0006 8.47954C25.0783 8.47954 25.5616 8.49417 27.1719 8.56735C28.661 8.63545 29.4691 8.88426 30.0075 9.09331C30.7202 9.37013 31.2283 9.70104 31.7625 10.2356C32.297 10.7701 32.6279 11.2792 32.9054 11.9919C33.1144 12.5297 33.3635 13.3379 33.4313 14.8269C33.5045 16.4369 33.5204 16.9206 33.5204 20.9965C33.5204 25.0724 33.5045 25.556 33.4313 27.166C33.3632 28.6551 33.1144 29.4633 32.9054 30.001C32.6286 30.7138 32.297 31.2213 31.7625 31.7555C31.228 32.29 30.7205 32.6209 30.0075 32.8978C29.4698 33.1078 28.661 33.3559 27.1719 33.424C25.562 33.4972 25.0783 33.5131 21.0006 33.5131C16.9226 33.5131 16.4393 33.4972 14.8294 33.424C13.3403 33.3553 12.5322 33.1065 11.9935 32.8974C11.2808 32.6206 10.7717 32.2897 10.2372 31.7552C9.70267 31.2206 9.37177 30.7128 9.09433 29.9998C8.88529 29.462 8.63616 28.6539 8.56839 27.1648C8.49521 25.5548 8.48057 25.0711 8.48057 20.9927C8.48057 16.9142 8.49521 16.4331 8.56839 14.8231C8.63648 13.334 8.88529 12.5259 9.09433 11.9875C9.37114 11.2748 9.70267 10.7657 10.2372 10.2311C10.7717 9.69658 11.2808 9.36567 11.9935 9.08822C12.5319 8.87822 13.3403 8.63004 14.8294 8.56163C16.2382 8.49799 16.7842 8.4789 19.6306 8.47572V8.47954ZM29.1529 11.0154C28.1411 11.0154 27.3202 11.8354 27.3202 12.8475C27.3202 13.8594 28.1411 14.6803 29.1529 14.6803C30.1646 14.6803 30.9855 13.8594 30.9855 12.8475C30.9855 11.8357 30.1646 11.0148 29.1529 11.0148V11.0154ZM21.0006 13.1568C16.6694 13.1568 13.1577 16.6686 13.1577 21C13.1577 25.3314 16.6694 28.8416 21.0006 28.8416C25.3319 28.8416 28.8423 25.3314 28.8423 21C28.8423 16.6686 25.3316 13.1568 21.0003 13.1568H21.0006ZM21.0006 15.9091C23.812 15.9091 26.0914 18.1882 26.0914 21C26.0914 23.8114 23.812 26.0909 21.0006 26.0909C18.189 26.0909 15.9099 23.8114 15.9099 21C15.9099 18.1882 18.189 15.9091 21.0006 15.9091Z" fill="#4D5557"/>
</svg>
