<svg width="42" height="42" viewBox="0 0 42 42" fill="none" xmlns="http://www.w3.org/2000/svg">
<path fill-rule="evenodd" clip-rule="evenodd" d="M22.2196 5.76857C25.9372 5.95127 29.4014 7.48432 32.0472 10.1319C34.8695 12.956 36.4229 16.7098 36.4214 20.7019C36.418 28.9399 29.7116 35.6427 21.4731 35.6427C18.375 35.6427 15.9131 34.6908 14.3234 33.8242L6.39902 35.9018L8.51977 28.1595C7.21162 25.8936 6.52328 23.3234 6.52436 20.69C6.52767 12.4523 13.2335 5.75009 21.4729 5.75009L22.2196 5.76857ZM14.6905 31.1193L15.1443 31.3884C17.0519 32.5199 19.2385 33.1186 21.468 33.1194H21.473C28.3211 33.1194 33.8947 27.5485 33.8974 20.701C33.8987 17.3829 32.6076 14.2628 30.2619 11.9156C27.916 9.56815 24.7966 8.27467 21.478 8.27359C14.6246 8.27359 9.05098 13.844 9.04825 20.6909C9.04731 23.0374 9.70415 25.3227 10.9479 27.2998L11.2433 27.7697L9.98813 32.3522L14.6905 31.1193ZM29.0039 24.2548C28.9106 24.099 28.6616 24.0056 28.2881 23.8187C27.9146 23.6319 26.0782 22.7287 25.7359 22.604C25.3935 22.4796 25.1445 22.4174 24.8955 22.791C24.6466 23.1647 23.9307 24.0056 23.7128 24.2548C23.495 24.5039 23.2771 24.5351 22.9036 24.3482C22.5301 24.1614 21.3266 23.7671 19.8999 22.4953C18.7896 21.5053 18.0399 20.2829 17.8221 19.9091C17.6042 19.5354 17.7988 19.3333 17.9858 19.1472C18.1539 18.9799 18.3594 18.7111 18.5461 18.4931C18.7329 18.2752 18.7951 18.1194 18.9196 17.8703C19.0441 17.6211 18.9818 17.4032 18.8885 17.2163C18.7951 17.0294 18.0481 15.1918 17.7369 14.4443C17.4337 13.7164 17.1257 13.8149 16.8965 13.8034C16.6789 13.7927 16.4296 13.7903 16.1807 13.7903C15.9316 13.7903 15.527 13.8837 15.1846 14.2575C14.8422 14.6312 13.8773 15.5344 13.8773 17.3719C13.8773 19.2095 15.2158 20.9846 15.4025 21.2338C15.5893 21.483 18.0363 25.2537 21.7831 26.8709C22.6742 27.2556 23.37 27.4852 23.9124 27.6573C24.8072 27.9414 25.6214 27.9014 26.265 27.8052C26.9826 27.698 28.4748 26.9021 28.7861 26.0301C29.0973 25.1579 29.0973 24.4105 29.0039 24.2548Z" fill="#4D5557"/>
</svg>
